HIERARCHY
ROOT Pelvis
{
	OFFSET 0.000000 0.000000 0.000000
	CHANNELS 6 Xposition Yposition Zposition Xrotation Yrotation Zrotation
	JOINT LeftUpLeg_virtual
	{
		OFFSET 0.000000 0.000000 0.000000
		CHANNELS 3 Xrotation Yrotation Zrotation
		JOINT LeftUpLeg
		{
			OFFSET 18.735201 -5.666702 -4.541200
			CHANNELS 3 Xrotation Yrotation Zrotation
			JOINT LeftLeg
			{
				OFFSET -0.021200 -31.938179 0.493100
				CHANNELS 3 Xrotation Yrotation Zrotation
				JOINT LeftFoot
				{
					OFFSET 0.021200 -31.938179 -4.336299
					CHANNELS 3 Xrotation Yrotation Zrotation
					JOINT LeftToeBase
					{
						OFFSET 0.943001 -26.722000 15.023500
						CHANNELS 3 Xrotation Yrotation Zrotation
						End Site
						{
							OFFSET 0 0 0
						}
					}
				}
			}
		}
	}
	JOINT RightUpLeg_virtual
	{
		OFFSET 0.000000 0.000000 0.000000
		CHANNELS 3 Xrotation Yrotation Zrotation
		JOINT RightUpLeg
		{
			OFFSET -18.735201 -5.666702 -4.541200
			CHANNELS 3 Xrotation Yrotation Zrotation
			JOINT RightLeg
			{
				OFFSET 0.018946 -31.938133 0.493100
				CHANNELS 3 Xrotation Yrotation Zrotation
				JOINT RightFoot
				{
					OFFSET -0.018946 -31.938126 -4.336299
					CHANNELS 3 Xrotation Yrotation Zrotation
					JOINT RightToeBase
					{
						OFFSET -0.943001 -26.722004 15.023500
						CHANNELS 3 Xrotation Yrotation Zrotation
						End Site
						{
							OFFSET 0 0 0
						}
					}
				}
			}
		}
	}
	JOINT Hips_virtual
	{
		OFFSET 0.000000 0.000000 0.000000
		CHANNELS 3 Xrotation Yrotation Zrotation
		JOINT Hips
		{
			OFFSET -0.000000 -0.000000 -0.000000
			CHANNELS 3 Xrotation Yrotation Zrotation
			JOINT Spine
			{
				OFFSET 0.000000 10.199997 -0.299500
				CHANNELS 3 Xrotation Yrotation Zrotation
				JOINT Spine1
				{
					OFFSET 0.000000 11.900002 -1.516600
					CHANNELS 3 Xrotation Yrotation Zrotation
					JOINT Spine2
					{
						OFFSET 0.000000 13.600006 -2.842500
						CHANNELS 3 Xrotation Yrotation Zrotation
						JOINT Neck_virtual
						{
							OFFSET 0.000000 0.000000 0.000000
							CHANNELS 3 Xrotation Yrotation Zrotation
							JOINT Neck
							{
								OFFSET 0.000000 9.624100 -2.890100
								CHANNELS 3 Xrotation Yrotation Zrotation
								JOINT Head
								{
									OFFSET 0.000000 14.068802 -1.351900
									CHANNELS 3 Xrotation Yrotation Zrotation
									End Site
									{
										OFFSET 0 0 0
									}
								}
							}
						}
						JOINT LeftShoulder_virtual
						{
							OFFSET 0.000000 0.000000 0.000000
							CHANNELS 3 Xrotation Yrotation Zrotation
							JOINT LeftShoulder
							{
								OFFSET 15.263000 10.923401 -0.547700
								CHANNELS 3 Xrotation Yrotation Zrotation
								JOINT LeftArm
								{
									OFFSET 25.438599 -2.830597 -13.032500
									CHANNELS 3 Xrotation Yrotation Zrotation
									JOINT LeftForeArm
									{
										OFFSET 29.960503 0.000000 0.000000
										CHANNELS 3 Xrotation Yrotation Zrotation
										JOINT LeftHand
										{
											OFFSET 27.849251 0.000000 0.000000
											CHANNELS 3 Xrotation Yrotation Zrotation
											End Site
											{
												OFFSET 0 0 0
											}
										}
									}
								}
							}
						}
						JOINT RightShoulder_virtual
						{
							OFFSET 0.000000 0.000000 0.000000
							CHANNELS 3 Xrotation Yrotation Zrotation
							JOINT RightShoulder
							{
								OFFSET -15.263000 10.923401 -0.547700
								CHANNELS 3 Xrotation Yrotation Zrotation
								JOINT RightArm
								{
									OFFSET -25.438599 -2.830597 -13.032500
									CHANNELS 3 Xrotation Yrotation Zrotation
									JOINT RightForeArm
									{
										OFFSET -29.960503 0.000000 0.000000
										CHANNELS 3 Xrotation Yrotation Zrotation
										JOINT RightHand
										{
											OFFSET -27.849251 0.000000 0.000000
											CHANNELS 3 Xrotation Yrotation Zrotation
											End Site
											{
												OFFSET 0 0 0
											}
										}
									}
								}
							}
						}
					}
				}
			}
		}
	}
}
MOTION
Frames: 13
Frame Time: 0.03333333
10.864135 83.394081 4.276958 0.000000 0.000000 0.000000 9.503190 -0.425003 -10.235931 -58.384846 -12.955400 29.782295 53.369066 -4.165311 -2.379771 -0.779122 2.243380 -15.268456 0.000000 0.000000 0.000000 9.503190 -0.425003 -10.235931 -38.720520 -26.666107 3.600406 52.580729 5.699288 -0.842719 -23.968508 -19.669625 -8.154784 0.000000 0.000000 0.000000 9.503190 -0.425003 -10.235931 -0.000001 -0.000000 0.000001 8.486002 -3.514165 -7.279832 6.795707 -2.703226 -6.539372 0.000000 0.000000 0.000000 6.822731 -2.529060 -6.561665 -2.700826 -0.126732 -2.498664 0.000000 0.000000 0.000000 6.822731 -2.529060 -6.561665 0.657390 -5.474594 -9.273251 -31.650861 6.573777 -19.060517 0.000014 -57.717284 0.000014 0.000000 0.000000 0.000000 6.822731 -2.529060 -6.561665 0.361038 -0.787753 2.746810 26.141089 -12.666230 76.530822 -0.000021 79.226820 0.000025 0.000000 0.000000 0.000000 
10.824675 83.057228 3.618992 0.000000 0.000000 0.000000 9.251402 -1.509051 -9.961837 -58.554337 -13.300111 29.990626 54.339578 -3.463914 -2.398649 -0.894467 2.247586 -15.330781 0.000000 0.000000 0.000000 9.251402 -1.509051 -9.961837 -40.214521 -25.840006 3.722894 53.754005 5.712121 -0.853110 -23.612463 -19.821120 -8.500207 0.000000 0.000000 0.000000 9.251402 -1.509051 -9.961837 0.000000 0.000000 0.000000 8.975496 -3.155536 -6.981171 7.111676 -2.571605 -6.414009 0.000000 0.000000 0.000000 7.134267 -2.411995 -6.415061 -2.729673 -0.120285 -2.479974 0.000000 0.000000 0.000000 7.134267 -2.411995 -6.415061 0.636255 -5.572585 -9.846502 -30.413084 9.620333 -20.356774 0.000001 -56.737009 0.000012 0.000000 0.000000 0.000000 7.134267 -2.411995 -6.415061 0.435996 -0.154701 3.207687 23.731627 -11.004969 75.385303 -0.000032 77.036338 0.000021 0.000000 0.000000 0.000000 
10.748257 82.819122 3.252968 0.000000 0.000000 0.000000 8.974594 -2.900724 -9.654091 -58.141295 -13.606404 30.473671 55.435325 -2.346234 -2.429490 -1.441501 2.322556 -15.661094 0.000000 0.000000 0.000000 8.974594 -2.900724 -9.654091 -41.207255 -25.151680 3.974135 54.572470 6.086934 -0.861398 -23.281748 -19.812367 -8.950266 0.000000 0.000000 0.000000 8.974594 -2.900724 -9.654091 0.000000 0.000000 0.000000 9.423528 -2.800490 -6.704640 7.403575 -2.428329 -6.253433 0.000000 0.000000 0.000000 7.422360 -2.272615 -6.260113 -2.711330 -0.111766 -2.448373 0.000000 0.000000 0.000000 7.422360 -2.272615 -6.260113 0.598235 -5.646886 -10.458237 -29.130053 12.344775 -22.295081 0.000010 -55.646965 0.000014 0.000000 0.000000 0.000000 7.422360 -2.272615 -6.260113 0.490283 0.533998 3.685337 21.315677 -9.569343 74.194316 0.000011 75.301347 0.000013 0.000000 0.000000 0.000000 
10.655077 82.608643 2.946024 0.000000 0.000000 0.000000 8.777773 -4.004520 -9.386538 -58.041356 -13.776047 30.690502 56.557125 -1.429026 -2.446608 -1.953187 2.361240 -15.569604 0.000000 0.000000 0.000000 8.777773 -4.004520 -9.386538 -42.065540 -24.444702 4.273841 55.271393 6.189742 -0.870206 -23.018707 -19.837601 -9.243863 0.000000 0.000000 0.000000 8.777773 -4.004520 -9.386538 0.000001 -0.000000 -0.000001 9.791273 -2.513995 -6.490269 7.641417 -2.286363 -6.122385 0.000000 0.000000 0.000000 7.656625 -2.105084 -6.121622 -2.688434 -0.103979 -2.397024 0.000000 0.000000 0.000000 7.656625 -2.105084 -6.121622 0.557991 -5.698680 -11.061477 -27.972070 14.186037 -24.353200 -0.000014 -54.075134 -0.000011 0.000000 0.000000 0.000000 7.656625 -2.105084 -6.121622 0.544758 1.131274 4.238602 19.483453 -8.250640 73.006669 -0.000046 73.739050 0.000032 0.000000 0.000000 0.000000 
10.531877 82.458138 2.640453 0.000000 0.000000 0.000000 8.642903 -4.769482 -9.157206 -58.333231 -13.790952 30.576838 57.606942 -0.679913 -2.431869 -2.302445 2.287935 -14.766852 0.000000 0.000000 0.000000 8.642903 -4.769482 -9.157206 -42.764211 -23.679897 4.679184 55.747212 6.032264 -0.878568 -22.760617 -20.012871 -9.423050 0.000000 0.000000 0.000000 8.642903 -4.769482 -9.157206 0.000000 0.000000 0.000000 10.006477 -2.356502 -6.323798 7.767371 -2.138698 -6.024966 0.000000 0.000000 0.000000 7.779424 -1.971604 -6.025090 -2.605145 -0.091137 -2.349926 0.000000 0.000000 0.000000 7.779424 -1.971604 -6.025090 0.524203 -5.743401 -11.652802 -26.668460 15.753008 -26.299712 0.000004 -52.301965 -0.000003 0.000000 0.000000 0.000000 7.779424 -1.971604 -6.025090 0.591542 1.635290 4.805949 18.029321 -7.082852 72.202503 0.000007 72.356838 -0.000021 0.000000 0.000000 0.000000 
10.385139 82.337997 2.368721 0.000000 0.000000 0.000000 8.552648 -5.241509 -8.993160 -58.700340 -13.674195 30.483247 58.349766 -0.299448 -2.418902 -2.501698 2.215442 -14.018576 0.000000 0.000000 0.000000 8.552648 -5.241509 -8.993160 -43.305899 -22.909274 5.155568 56.087130 5.579716 -0.885836 -22.553122 -20.204224 -9.457638 0.000000 0.000000 0.000000 8.552648 -5.241509 -8.993160 0.000000 0.000000 -0.000001 10.101548 -2.244483 -6.227111 7.808639 -2.020717 -5.922202 0.000000 0.000000 0.000000 7.818915 -1.853668 -5.947461 -2.468389 -0.077748 -2.284668 0.000000 0.000000 0.000000 7.818915 -1.853668 -5.947461 0.491183 -5.781703 -12.249135 -25.319241 17.178624 -28.321202 0.000013 -50.818110 0.000026 0.000000 0.000000 0.000000 7.818915 -1.853668 -5.947461 0.599694 2.062547 5.417963 16.395551 -5.953257 71.596119 0.000033 70.649592 -0.000045 0.000000 0.000000 0.000000 
10.214478 82.311768 2.067738 0.000000 0.000000 0.000000 8.437726 -5.546429 -8.895345 -58.976327 -13.513458 30.372967 58.701726 0.004192 -2.402077 -2.456920 2.107916 -13.215520 0.000000 0.000000 0.000000 8.437726 -5.546429 -8.895345 -43.590267 -22.209740 5.700293 56.063432 4.960223 -0.891846 -22.180372 -20.325694 -9.401434 0.000000 0.000000 0.000000 8.437726 -5.546429 -8.895345 0.000000 0.000000 -0.000001 10.125071 -2.181308 -6.164685 7.802027 -1.932132 -5.835046 0.000000 0.000000 0.000000 7.811553 -1.777858 -5.889258 -2.320727 -0.059892 -2.231830 0.000000 0.000000 0.000000 7.811553 -1.777858 -5.889258 0.459902 -5.814606 -12.820951 -23.955765 18.174988 -30.086929 -0.000009 -49.337489 -0.000019 0.000000 0.000000 0.000000 7.811553 -1.777858 -5.889258 0.591473 2.416965 6.076049 14.609027 -4.913909 71.035518 0.000019 68.647424 -0.000022 0.000000 0.000000 0.000000 
10.011555 82.346397 1.806946 0.000000 0.000000 0.000000 8.280965 -5.860918 -8.788811 -58.979346 -13.327880 30.302619 58.863793 0.312179 -2.393946 -2.463133 2.033832 -12.617869 0.000000 0.000000 0.000000 8.280965 -5.860918 -8.788811 -43.678312 -21.596980 6.232873 55.859896 4.282060 -0.896447 -21.754796 -20.247884 -9.326554 0.000000 0.000000 0.000000 8.280965 -5.860918 -8.788811 0.000000 0.000000 0.000000 10.103844 -2.138841 -6.094506 7.766324 -1.881252 -5.764694 0.000000 0.000000 0.000000 7.775784 -1.714109 -5.840001 -2.160034 -0.046812 -2.141719 0.000000 0.000000 0.000000 7.775784 -1.714109 -5.840001 0.441811 -5.841090 -13.359261 -22.460536 18.926582 -31.792362 0.000004 -47.602245 0.000002 0.000000 0.000000 0.000000 7.775784 -1.714109 -5.840001 0.608396 2.739677 6.705405 12.627948 -3.489212 70.454398 -0.000006 66.437960 0.000001 0.000000 0.000000 0.000000 
9.792617 82.426430 1.571764 0.000000 0.000000 0.000000 8.096650 -6.140646 -8.671242 -58.822580 -13.152721 30.184508 58.940421 0.613288 -2.388627 -2.590616 1.971419 -12.106556 0.000000 0.000000 0.000000 8.096650 -6.140646 -8.671242 -43.619770 -21.098050 6.714860 55.540059 3.674515 -0.899880 -21.333488 -20.100512 -9.297772 0.000000 0.000000 0.000000 8.096650 -6.140646 -8.671242 0.000000 -0.000001 0.000000 10.026354 -2.109080 -6.053577 7.694632 -1.844072 -5.695971 0.000000 0.000000 0.000000 7.704307 -1.668612 -5.799785 -2.024007 -0.030478 -2.065158 0.000000 0.000000 0.000000 7.704307 -1.668612 -5.799785 0.436686 -5.873332 -13.840769 -21.216851 19.677999 -33.523849 -0.000010 -46.002014 -0.000015 0.000000 0.000000 0.000000 7.704307 -1.668612 -5.799785 0.628600 3.064499 7.328857 10.660727 -1.748665 69.787881 -0.000004 64.023557 0.000004 0.000000 0.000000 0.000000 
9.562201 82.564255 1.352016 0.000000 0.000000 0.000000 7.902482 -6.501371 -8.563354 -58.421880 -12.988499 30.194668 58.817266 0.995469 -2.386966 -2.663904 1.908812 -11.742972 0.000000 0.000000 0.000000 7.902482 -6.501371 -8.563354 -43.407949 -20.679723 7.206416 54.996922 3.052575 -0.901184 -20.795320 -19.753906 -9.264527 0.000000 0.000000 0.000000 7.902482 -6.501371 -8.563354 0.000000 0.000000 0.000000 9.889273 -2.089729 -6.008839 7.585594 -1.822164 -5.647210 0.000000 0.000000 0.000000 7.595679 -1.630374 -5.761803 -1.951540 -0.013912 -1.991648 0.000000 0.000000 0.000000 7.595679 -1.630374 -5.761803 0.424260 -5.890608 -14.240734 -19.719248 19.966340 -35.477112 0.000002 -44.601173 0.000001 0.000000 0.000000 0.000000 7.595679 -1.630374 -5.761803 0.627540 3.434271 7.959692 9.077531 0.016071 68.744754 -0.000001 61.942699 0.000024 0.000000 0.000000 0.000000 
9.322662 82.766571 1.161739 0.000000 0.000000 0.000000 7.658817 -6.953851 -8.461056 -57.814198 -12.739911 30.251823 58.588236 1.399220 -2.389417 -2.740546 1.854957 -11.436874 0.000000 0.000000 0.000000 7.658817 -6.953851 -8.461056 -42.994579 -20.295870 7.721135 54.232440 2.453948 -0.900673 -20.159028 -19.265909 -9.239396 0.000000 0.000000 0.000000 7.658817 -6.953851 -8.461056 0.000001 0.000000 0.000000 9.692607 -2.082397 -5.985377 7.437454 -1.791785 -5.611870 0.000000 0.000000 0.000000 7.447830 -1.584538 -5.709139 -1.844703 0.002381 -1.905397 0.000000 0.000000 0.000000 7.447830 -1.584538 -5.709139 0.416265 -5.889156 -14.548954 -18.858946 19.921527 -37.294978 0.000010 -43.194430 0.000012 0.000000 0.000000 0.000000 7.447830 -1.584538 -5.709139 0.643600 3.846709 8.530063 7.588286 1.664684 67.772661 0.000004 60.162307 0.000014 0.000000 0.000000 0.000000 
9.096268 82.991707 0.977901 0.000000 0.000000 0.000000 7.368695 -7.354083 -8.374062 -57.126305 -12.482743 30.292114 58.374704 1.972091 -2.395924 -2.842117 1.809398 -11.143536 0.000000 0.000000 0.000000 7.368695 -7.354083 -8.374062 -42.484091 -19.944134 8.160183 53.396455 1.472413 -0.898996 -19.457344 -18.370726 -9.040715 0.000000 0.000000 0.000000 7.368695 -7.354083 -8.374062 0.000000 0.000000 -0.000001 9.415972 -2.080740 -5.974228 7.229828 -1.752433 -5.592911 0.000000 0.000000 0.000000 7.239788 -1.536757 -5.681155 -1.692265 0.019676 -1.813580 0.000000 0.000000 0.000000 7.239788 -1.536757 -5.681155 0.417928 -5.853610 -14.760971 -18.428506 19.352924 -38.943222 -0.000002 -41.688159 0.000011 0.000000 0.000000 0.000000 7.239788 -1.536757 -5.681155 0.676285 4.251825 9.020116 6.194530 3.365121 66.951133 0.000002 58.697976 -0.000002 0.000000 0.000000 0.000000 
8.848827 83.284813 0.837135 0.000000 0.000000 0.000000 7.034770 -7.825869 -8.279975 -56.208465 -12.138715 30.369729 58.034956 2.597056 -2.406441 -2.961804 1.788872 -10.913725 0.000000 0.000000 0.000000 7.034770 -7.825869 -8.279975 -41.756075 -19.618682 8.635739 52.349541 0.753011 -0.896618 -18.732965 -17.580306 -8.972855 0.000000 0.000000 0.000000 7.034770 -7.825869 -8.279975 -0.000000 -0.000001 -0.000001 9.058544 -2.088505 -5.957525 6.966939 -1.713075 -5.582114 0.000000 0.000000 0.000000 6.976321 -1.498224 -5.646739 -1.548416 0.036585 -1.717265 0.000000 0.000000 0.000000 6.976321 -1.498224 -5.646739 0.431747 -5.792489 -14.912620 -18.384383 18.582484 -40.300739 -0.000019 -40.185333 -0.000037 0.000000 0.000000 0.000000 6.976321 -1.498224 -5.646739 0.683333 4.596232 9.475073 5.222524 4.892649 66.077893 -0.000007 57.905606 0.000018 0.000000 0.000000 0.000000 
